<svg preserveAspectRatio="xMidYMid meet" data-bbox="8.516 1.7 363.1 94.283" viewBox="0 0 378.1 97.5" xmlns="http://www.w3.org/2000/svg" data-type="ugc" role="img">
    <g>
        <path d="M126.916 47.881v4.4c0 .8 0 .7-.7.8-1 .1-2-.2-2.7-.9-1.7-1.6-3.8-2.7-6.1-3.1-1.8-.4-3.6-.4-5.3.1-1.9.5-3.6 1.8-4.5 3.6-.8 1.5-1.3 3.2-1.3 5-.1 1.8.1 3.5.6 5.2.8 2.7 3.1 4.7 5.9 5.1 4.2.7 8-.1 11-3.2.9-.9 1.9-.8 2.9-.8.2 0 .3.1.3.3v9.1c.1.5-.3 1-.8 1.2-2.7 1.2-5.6 2-8.6 2.4-2.3.2-4.5.2-6.8-.1-2.4-.2-4.7-.8-6.9-1.7-5.2-2-9-6.7-9.8-12.2-.7-3.5-.6-7.1.4-10.5 1.4-5.1 5.2-9.2 10.1-10.9 3.3-1.2 6.8-1.8 10.3-1.7 4 .1 7.9 1 11.5 2.7.3.1.6.5.5.8v4.4z" fill="#ffa62f"></path>
        <path d="M316.016 55.581l3.3-4.2c2.4-3.1 4.8-6.1 7.2-9.2.2-.3.6-.5 1-.5h12.8c.2 0 .3-.1.5.1-.1.3-.3.5-.5.7-3.9 4.7-7.8 9.3-11.6 14-.5.6-.5.6 0 1.3 4.2 6.2 8.3 12.3 12.5 18.5.2.2.4.5.4.8-.3.1-.6.2-.8.1h-12.3c-.5 0-1-.2-1.3-.7-2.8-4.4-5.6-8.7-8.4-13.1-.1-.3-.3-.5-.6-.7-.7.9-1.4 1.8-2.1 2.6-.2.3-.2.6-.2.9v10.4c0 .4-.1.6-.6.6h-11.2c-.3 0-.5-.1-.4-.5v-47.2c0-1.1-.1-1 1-1h10.5c.4 0 .6.1.6.5v25.7c0 .2 0 .6.2.9z" fill="#ffa62f"></path>
        <path d="M297.516 47.881v4.5c0 .6 0 .6-.7.6-1.6 0-1.6 0-2.8-1-1.8-1.5-3.9-2.6-6.1-3.1-1.6-.3-3.2-.3-4.7 0-2.6.5-4.8 2.4-5.6 5-.5 1.3-.7 2.7-.7 4.1-.1 1.6.1 3.2.6 4.8.8 2.8 3.1 4.8 6 5.2 4.1.8 8.2-.5 11.1-3.4.9-.9 1.8-.5 2.7-.6.2 0 .2.2.2.3v9.2c.1.5-.2.9-.7 1.1-6.9 3-14.7 3.3-21.8.8-5.6-2-9.6-7-10.4-12.9-.6-3.3-.4-6.7.4-9.9 1.4-5.3 5.3-9.5 10.5-11.3 3.9-1.4 8.1-1.9 12.3-1.4 3.1.3 6.1 1.2 9 2.5.5.1.8.6.7 1.1v4.4z" fill="#ffa62f"></path>
        <path d="M239.616 40.981c-.4-4.3-3.2-8.1-7.2-9.7-.3-.1-.5-.2-.8-.3-2.6-1-5.4-1.5-8.3-1.5h-19.3c-1 0-.9-.1-.9.9v44.9c0 .8 0 .8.7.8h9.3c.6 0 .7.1.6-.6v-15.7c0-.7 0-.7.6-.7h3.9c2 0 4 0 6-.1 4.3-.3 8.4-2.1 11.4-5.2.9-.9 1.6-1.9 2.2-3 1.7-3.1 2.3-6.5 1.8-9.8zm-11.2 5.2c-.6 2.5-2.5 4.4-5 4.9-1.6.3-3.1.5-4.7.5h-4.1c-.7 0-.7 0-.7-.7v-13.4c0-.6 0-.6.6-.6 2.3 0 4.7 0 7 .1 1.3.1 2.5.4 3.6.9 2 .9 3.4 2.9 3.5 5.1.1 1.1.1 2.2-.2 3.2z" fill="#ffa62f"></path>
        <path d="M88.416 51.281c-1.3-4.4-4.5-8-8.6-9.8-2.4-1-4.9-1.6-7.4-1.8-3-.3-6 0-9 .7-5.7 1.6-9.7 5-11.5 10.7-1.6 4.7-1.6 9.8 0 14.5 1.4 4.5 4.7 8.1 9 9.9 2.5 1.1 5.2 1.6 7.9 1.7 2.6.2 5.3-.1 7.9-.7 4.8-1.1 8.8-4.3 10.9-8.7 1-2.2 1.7-4.6 1.8-7 .2-3.3-.1-6.5-1-9.5zm-11.9 11.5c-.2 1-.6 1.9-1.1 2.7-.8 1.5-2.3 2.5-3.9 2.7-2 .4-4.1 0-5.7-1.2-1.2-1.1-2-2.5-2.2-4-.7-3-.7-6.1 0-9.1.2-1.2.7-2.3 1.4-3.3.9-1.3 2.3-2.1 3.9-2.2.9-.1 1.8-.1 2.7.1 1.8.3 3.3 1.4 4 3.1.7 1.5 1.1 3.2 1.2 4.8.1.7 0 1.4 0 2.2.1 1.4 0 2.8-.3 4.2z" fill="#ffa62f"></path>
        <path d="M255.916 39.181c-.6.2-1.3.3-1.9.2h-2.8c-.7.1-1.3 0-2-.2v4.9c0 .2-.1.5.1.7.2.3.3.7.2 1.1v24.7c0 1.4.3 2.8.8 4.1.2.6.6 1.2 1 1.7.4.6 1.3.8 1.9.4.2-.1.3-.3.4-.4.5-.6.9-1.4 1.2-2.2.5-1.5.7-3 .7-4.5v-23.8c0-.3-.1-.6.1-.9.2-.3.3-.7.2-1 .1-1.6.1-3.2.1-4.8z" fill="#ffa62f"></path>
        <path d="M266.616 20.781c-.1-1.2-.4-2.3-.7-3.4-1.8-4.9-4.3-9.5-7.4-13.7-.7-.9-1.7-1.5-2.8-1.7-1.8-.3-3.7-.4-5.5-.1-1.2 0-2.4.6-3.2 1.6-3.2 4.1-5.7 8.6-7.5 13.5-1.1 2.9-1.1 6.1 0 9 1.6 4.2 3.7 8.2 6.4 11.8.5.7 1.2 1.1 2 1.2.4.1.7.1 1.1.1.7.4 1.5.5 2.3.4h2.8c.8.1 1.6 0 2.3-.4h.6c1.1 0 2-.6 2.6-1.5.4-.7 1-1.4 1.4-2.1 2.2-3.3 4-6.9 5.2-10.7.3-1.3.5-2.7.4-4zm-21.1-9c.3-.9.7-1.7 1.2-2.5s.9-1.6 1.4-2.4c.1-.2.3-.4.1-.6-.3-.4-.7-.8-.4-1.3.3-.7.9-1.2 1.6-1.4.8-.2 1.6-.3 2.5-.3 1.1 0 2.2 0 3.3.2.8.1 1.5.4 1.9 1 .5.7.5.9.1 1.6-.1.1-.2.3-.3.4.7 1.2 1.4 2.3 2 3.5.3.6.6 1.2.8 1.8.1.4.1.8-.1 1.2-.6.8-1.3 1.5-2.1 2.1-.1.1-.3.1-.4 0-.2-.2 0-.3.1-.4.6-.4 1.1-.9 1.6-1.4.6-.5.7-1.2.3-1.9-.7-1.5-1.5-3-2.5-4.4-.4-.6-1.1-1-1.8-1-1.5.1-3 0-4.4 0-.7 0-1.4.4-1.8 1-.9 1.4-1.8 2.8-2.4 4.4-.4.6-.2 1.4.3 1.8.5.5 1.1 1 1.6 1.4.1.1.2.2.1.3-.1.1-.2.2-.3.1 0 0-.1 0-.1-.1-.8-.6-1.5-1.3-2.1-2-.3-.1-.4-.6-.2-1.1zm11.6 7.7c-.1 2.5-2.2 4.5-4.7 4.4s-4.5-2.2-4.4-4.7c.1-2.5 2.1-4.5 4.6-4.4 2.5 0 4.5 2.1 4.5 4.6v.1zm2.5 8.1c-.7 2.1-1.7 4.2-2.9 6.1-.2.4-.7.6-1.1.7-2 .2-4 .2-6 0-.5 0-.9-.3-1.2-.7-1.2-1.9-2.2-3.9-2.9-6-.2-.5-.1-1 .1-1.4.6-.9 1.4-1.7 2.3-2.3.1-.1.3-.1.4 0l.1.1c.1.2-.1.3-.2.4-.6.5-1.1 1-1.7 1.5-.6.5-.8 1.4-.4 2.1.7 1.8 1.5 3.5 2.5 5.1.3.5.8.8 1.3.9.9.1 1.8.1 2.9.1.9 0 1.7 0 2.6-.2.4 0 .7-.2.9-.5 1.2-1.8 2.1-3.8 2.8-5.9.1-.4.1-.9-.2-1.3-.5-.6-1.1-1.2-1.7-1.7-.2-.1-.3-.2-.5-.4-.1 0-.1-.1 0-.2s.1-.1.2-.1.2.1.3.1c.8.6 1.5 1.3 2.1 2.1.4.3.5.9.3 1.5z" fill="#ffa62f"></path>
        <path d="M145.316 55.681c.5-.6 7.4-9.5 10.5-13.4.2-.4.7-.6 1.1-.6h12.9c.2 0 .3 0 .4.1-.2.2-.3.5-.5.7-3.8 4.5-7.5 9-11.3 13.6-.8 1-.8 1-.1 2.1 4 5.9 8 11.9 12.1 17.8l.6.9c-.1.3-.3.2-.5.2h-12.9c-.4 0-.9-.3-1-.7-2.8-4.3-8.7-13.6-9-13.8-.7.9-1.5 1.8-2.2 2.7-.2.3-.2.6-.1.9v10.1c0 .8 0 .8-.8.8h-10.4c-1 0-.9.1-.9-1v-48.7c0-.3.1-.4.4-.4h11c.8 0 .7 0 .7.7-.1 2-.1 27.7 0 28z" fill="#ffa62f"></path>
        <path d="M24.416 27.281c0 2.2-.1 5.7 0 7.9v31.1c0 .8 0 .8.8.8h21c1.7 0 1.4-.2 1.4 1.5v7.6c0 .8 0 .8-.8.8h-32.7c-.2 0-.4-.1-.4-.3v-49.5c0-.2.1-.3.3-.3h9.4c.5.1.9-.1 1 .4z" fill="#ffa62f"></path>
        <path fill="none" stroke="#ffa62f" stroke-width="4" stroke-miterlimit="10" d="M133.116 33.381h-109"></path>
        <path fill="none" stroke="#ffa62f" stroke-width="4" stroke-miterlimit="10" d="M174.016 33.381h-28.8"></path>
        <path d="M13.816 33.381h0-5.3v50.6h179" fill="none" stroke="#ffa62f" stroke-width="4" stroke-miterlimit="10"></path>
        <path d="M371.616 28.781v2.4c-.2 2-.6 4-1.2 6-3.8 14.2-7.7 28.3-11.5 42.5-.8 3.1-2.4 5.9-4.7 8.2-2.6 2.5-6.1 3.9-9.8 3.9h-37.7c-.3 0-.7-.1-1 .1-.2.2-.1.5-.1.8v2.7c0 .4-.1.6-.5.6h-66.1c-1.2 0-1.1.1-1.1-1.1v-2.2c0-.2.1-.5-.1-.7-.3-.3-.6-.1-.9-.1h-37.6c-.9 0-1.9-.1-2.8-.3-4.4-.9-8.1-3.8-10.1-7.7-.2-.4-.4-.8-.7-1.2-3-9.8-5.5-19.7-8.2-29.6-1.6-5.7-3.1-11.5-4.7-17.3-.1-.2-.1-.5-.2-.7-.6-2.1-.8-4.2-.6-6.4.7-6.2 3.6-11 9.4-13.7 1.7-.8 3.5-1.1 5.4-1.1h52c.3 0 .6 0 .9.1-.2.7-.5 1.4-.8 2-.5 1.3-.5 1.2-1.8 1.2-16.5 0-33 .1-49.5 0-5.3-.1-10 3.3-11.6 8.3-.9 2.7-1 5.6-.3 8.4l8.4 30.6c1.3 4.8 2.6 9.7 4 14.5.7 2.8 2.3 5.4 4.6 7.2 1.9 1.5 4.3 2.3 6.8 2.3h40.6c1.2 0 1.1-.1 1.1 1.1v2.7c0 .6 0 .6.6.6h59.6c1.2 0 1.1.2 1.1-1.1v-2.5c0-.8 0-.8.8-.8h.5c13.3 0 26.6-.1 39.9 0 5.5.1 10.3-3.5 11.8-8.8.9-3.2 1.8-6.3 2.6-9.5 3.3-12.1 6.6-24.2 9.8-36.2 1.3-4.4.4-9.1-2.5-12.6-2.1-2.7-5.4-4.3-8.8-4.2h-88.4c-1.2 0-1.2 0-1.6-1.1-.3-.7-.6-1.4-.8-2.1.3-.1.6-.1.9-.1h90.2c5.3 0 9.3 2.5 12.1 6.9 1.5 2.2 2.5 5 2.6 8z" fill="#ffa62f"></path>
    </g>
</svg>