<svg preserveAspectRatio="xMidYMid meet" data-bbox="4.7 3.1 120.619 78.698" viewBox="4.7 3.1 120.619 78.698" xmlns="http://www.w3.org/2000/svg" data-type="color" role="img">
    <g>
        <path fill="#ffffff" d="M87.489 3.1v5.7h-37.6V3.1h37.6z" data-color="1"></path>
        <path fill="#ffffff" d="M71.519 8.798v14.5h-5.7v-14.5h5.7z" data-color="1"></path>
        <path fill="#ffffff" d="M10.4 34.093v37.6H4.7v-37.6h5.7z" data-color="1"></path>
        <path fill="#ffffff" d="M24.419 50.098v5.7h-14v-5.7h14z" data-color="1"></path>
        <path d="M113.619 35.398v5.1h-5.6v-7.6h-7.4l-10.4-9.6h-44.2l-8.6 9.6h-13v39.5h15l10.4 9.4h58.5v-11.9h6.1v4.6h10.9v-39.1h-11.7zm-22.4 19.3c-.1.9-.2 1.8-.4 2.6-.1.5-.3 1-.4 1.5 0 .2-.1.3-.3.3-.8.1-1.7.1-2.6.1-.4 0-.9 0-1 .6-.1.3-.3.6-.5.9-.2.2-.2.5 0 .7.5.8 1 1.6 1.6 2.4.1.1.1.4 0 .5-.9 1.2-1.9 2.3-3 3.3-.1.1-.2.1-.3 0-1-.5-1.9-1-2.9-1.5-.1 0-.3 0-.4.1-.5.4-.9.6-1.4.9-.2.1-.3.2-.2.4.1.5.1 1 .1 1.5s.1 1.1.1 1.6c0 .2-.1.4-.3.4-1.3.5-2.6 1-4 1.3-.2.1-.5 0-.6-.2l-1.5-2.4c-.1-.2-.4-.4-.7-.3-.5.1-.9.1-1.4.1-.2 0-.3.1-.4.3-.4.9-.9 1.8-1.3 2.7-.1.2-.3.4-.6.3-1.4-.2-2.8-.5-4.2-.9-.1-.1-.2-.1-.2-.3-.1-.5-.1-1.1-.1-1.6.1-.6-.1-1.1-.1-1.7 0-.2-.1-.3-.2-.3-.5-.2-1-.4-1.4-.7-.1-.1-.4-.1-.5 0-.9.6-1.7 1.2-2.6 1.8-.1.1-.2.1-.3 0-1.1-.7-2.1-1.6-3-2.6-.2-.2-.3-.4-.4-.5-.2-.1 0-.2 0-.3.4-.9.9-1.9 1.4-2.8.1-.2.1-.3 0-.4-.3-.4-.6-.9-.9-1.4-.1-.1-.2-.1-.3-.1-1.1 0-2.2.1-3.3.2-.1 0-.1-.1-.2-.2-.5-1.3-1-2.6-1.3-4-.1-.3 0-.6.3-.7l2.4-1.5c.3-.2.4-.4.3-.7 0-.4-.1-.8 0-1.2 0-.3-.2-.5-.4-.6-.9-.4-1.7-.8-2.5-1.2-.4-.1-.6-.4-.5-.8.2-1.3.4-2.6.8-3.9 0-.2.3-.4.5-.3 1 0 2-.2 3-.1.2 0 .4-.1.4-.3.2-.5.4-.9.7-1.4.1-.2.1-.4 0-.5-.6-.8-1.1-1.7-1.7-2.5-.1-.1-.1-.4 0-.5.8-1.2 1.8-2.3 2.9-3.3.1-.1.3-.1.4 0 .9.4 1.8.9 2.7 1.4.2.2.4.2.6 0 .4-.3.8-.5 1.3-.8.1 0 .2-.2.2-.3 0-1.1-.1-2.1-.2-3.2 0-.2.1-.3.3-.4 1.4-.6 2.8-1.1 4.2-1.4.2 0 .3.1.4.2.5.9 1.1 1.7 1.6 2.6.1.2.3.3.5.3.5-.1 1.1-.1 1.6-.1.3 0 .3-.1.4-.3.4-.9.9-1.8 1.3-2.7.1-.2.2-.3.4-.3 1.5.2 3 .5 4.4 1 .2.1.2.1.2.3 0 1 .1 2 .1 3 0 .2.1.4.3.5.3.1.5.3.8.4.8.4.9.4 1.7-.2.6-.5 1.3-.9 1.9-1.3.2-.1.4-.1.5 0 1.2.9 2.2 1.8 3.2 2.8.2.2.3.5.1.7-.5.9-.9 1.7-1.4 2.6-.1.2-.1.4 0 .5.3.4.6.8.8 1.3.1.1.2.3.4.2.4-.1.9-.1 1.4-.1.5-.1 1.1-.1 1.7-.1.1 0 .3.1.3.2.6 1.3 1.1 2.8 1.4 4.2 0 .2-.1.3-.2.4-.9.5-1.7 1.1-2.6 1.6-.2.1-.3.3-.3.5 0 .5.1 1 .1 1.5 0 .2.1.3.3.4.9.4 1.7.8 2.6 1.2.3.1.5.3.4.6z" fill="#ffffff" data-color="1"></path>
        <path d="M70.419 64.498c-6.6-.4-11.6-6-11.2-12.6s6-11.6 12.6-11.2c6.3.4 11.3 5.7 11.2 12 0 6.5-5.3 11.8-11.9 11.8h-.7z" fill="#ffffff" data-color="1"></path>
    </g>
</svg>