<svg preserveAspectRatio="xMidYMid meet" data-bbox="1.6 1.7 126.5 54.7" viewBox="0 0 130.6 58.1" xmlns="http://www.w3.org/2000/svg" data-type="ugc" role="img">
    <g>
        <path d="M78.1 1.7h32.1c9.9 0 17.9 8 17.9 17.9v18.9c0 9.9-8 17.9-17.9 17.9H78.1c-9.9 0-17.9-8-17.9-17.9V19.6c-.1-9.9 8-17.9 17.9-17.9z" fill="none" stroke="#ffffff" stroke-miterlimit="10"></path>
        <path d="M109.8 3.3H78.4c-9.1 0-16.6 7.5-16.6 16.6v18.3c0 9.2 7.5 16.6 16.6 16.6h31.4c9.2 0 16.6-7.5 16.6-16.6V19.9c0-9.2-7.5-16.6-16.6-16.6zm5.3 35.8c0 2.2-1.8 4.1-4.1 4.1h-1.6c-2.2 0-4.1-1.8-4.1-4.1V19c0-2.2 1.8-4 4.1-4h1.6c2.2 0 4.1 1.8 4.1 4.1v20z" fill="#ffffff"></path>
        <path fill="#ffffff" d="M60.2 27.8v-7.7H10.1l-7.3 7.7h57.4z"></path>
        <path fill="#ffffff" d="M60.2 29.9v-1.6H2.4l-.8.7 1.2.9h57.4z"></path>
        <path fill="#ffffff" d="M3.4 30.3l10.1 7.3 3.6-4.7 2 4.7 3.9-4.5 7.1 4.5 4.3-6.2 10.3 5.3 9-4.1 6.5 3.5v-5.8H3.4z"></path>
    </g>
</svg>