<svg preserveAspectRatio="xMidYMid meet" data-bbox="29.1 5.15 606.257 160.469" viewBox="0 0 660 170" xmlns="http://www.w3.org/2000/svg" data-type="ugc" role="img"><g><path d="M422.8 30.9h-69.5l-27.5.6-7.3 2.8-9 7.3-3 10.8 1 12.2L313 85l17 58.5 4.6 7.2 8.1 4.7h37.6l35.8.5-.4 7.3h107.9l2-6.6 70-.7 9.5-6s5-8.1 5.3-8.6 14.8-54.3 15-54.6c.3-.2 8.3-31.2 8.3-31.2L630 44.7l-4.5-6.4-7.1-4.5-10.1-2.3-139.2-.6h-46.3z" fill="#fefefe"></path><path d="M414.4 28.8l8.2-14.2c1.4-2.4 3.2-4.5 5.3-6.3 1.4-1.2 3.1-2 5-2.4l2.8-.6c1-.2 2.1-.2 3.1 0l2.8.6c2.3.5 4.5 1.5 6.4 3l.8.6c1.3 1 2.4 2.3 3.3 3.6l10.3 15.7h-48z" fill="#fefefe"></path><path d="M514.5 147.1c-.1 2.4-.2 4.2-.3 6.5h-89.8c-1.3-1.7.2-4-1.1-6.1-1.4-.9-3.2-.4-4.9-.4h-64.6c-1.6 0-3.2 0-4.8-.1-6.6-.5-11.1-3.7-13-10.1-3.3-11.4-6.4-22.9-9.6-34.4-3.7-13.5-7.3-27-11-40.5-1.3-4.5-1.8-9 .1-13.5 2.5-5.8 6.8-9.3 13.2-9.3 27.4-.1 54.9 0 82.3.1.1 0 .3.1.6.2 2.2 13 7.1 24.6 18.1 34.1.4 7.7.3 16.5.4 25.2.1 8.1-.4 16.2.6 24.4.6 5.1 2.6 8.2 6.8 10.2 5.5-2.4 6.4-7.4 6.5-12.6.2-10.7.2-21.4 0-32.1-.1-5.3 1.5-10.4.6-15.8 6.6-3.1 9.2-9.2 12.3-14.9 3-5.6 5.5-11.5 5.6-17.9 1-1.3 2.4-1 3.6-1h142.1c9.7 0 16.5 8.1 15.3 17.8-.6 4.9-2.3 9.6-3.5 14.3-5.6 21.2-11.4 42.3-17.1 63.5-1 3.6-2.6 6.8-5.5 9.3-3 2.5-6.5 3.1-10.3 3.1-22.5-.1-45 0-67.5 0h-5.1z" fill="#ff9d27"></path><path d="M36.2 145.7c-2.4.4-4.7-.5-7.1-.9V61.6c4.1-1.1 8-.3 11.9-.5 1.4 1.5 1.3 3 .3 4.7-.4.4-1 .6-1.5.7-1.5.3-3.2-.3-4.7.7-1.2 1.7-.7 3.7-.7 5.5v57.1c0 1.7.3 3.5-.3 5.2.7-7.8.2-15.5.3-23.3.1-12.8 0-25.7 0-38.5 0-1.9-.4-3.8.7-5.6 1.6-1.5 3.5-1 5.4-.8.6.3 1 .7 1.3 1.2.9 2.1.6 4.4.6 6.6v52.6c0 2-.3 4.2.7 6.1.8 1.5 2.2 1.6 3.7 1.6 15.9 0 31.8.1 47.7-.1.6 0 1.3-.2 2.3-1.2-.4-4.6 2.1-9.9-1.4-14.8-7.6-.7-15.2-.1-22.8-.3-2.4-.1-4.8.2-7.1-.5-.6-.2-1.1-.6-1.5-1.1s-.7-1-.9-1.6c-.8-14.8-.2-29.6-.3-44.4 0-1.3.4-2.5 1.6-4 6.2-1.7 13.1-.4 19.9-.8 50.7.2 101.3-.3 152 .3.8 0 1.5.4 2.3 1.2 1.5 1.8 1.1 4.3 1.1 6.7v51.1c0 2.1-.1 4.1.2 6.2.5 1.2 1.2 2.3 2.6 2.4 5.5.3 11.1.3 16.3 0 3.6-7.2-2.7-16.3 5.7-22.3 7.2 6.4 9.6 16.1 16.8 22.3 6.1.4 12.2.3 19.3.1-6.4-10.8-13.5-20.2-19.7-30.3-.2-3.4 2.4-5.3 4.3-7.6 5-6.1 10-12.2 14.8-18.1-.1-1.4-1-1.5-1.8-1.6-6.8-.1-13.6-.2-20.6.1-4 4.8-7.7 9.8-11.5 14.6-1.2 1.6-2.2 4.2-5.2 2.8-2.2-6.3-.6-12.9-1-19.3-.1-2.5-.5-5.1 2.2-8.3 13.5-.1 27.8-.5 42.2.2 2.6 1 3.1 3.5 3.8 5.8 6.4 23.2 12.3 46.5 19.1 69.5.4 1.3 1.7 3.2-1.1 3.7H40.5c-1.4 0-2.8-.1-4.3.1z" fill="#1384f6"></path><path d="M340.1 150.8c4 1.7 8.2 2 12.5 2 20.3-.1 40.6-.1 60.9 0 1.6 0 3.5-.8 4.9.9 1.4 1.8.3 4.2 1.7 5.9 1.1.9 2.4.6 3.7.6h92.8c.9 0 1.9.2 2.9-.5 1.4-1.9-.3-4.3 1-6.5 1.5-.9 3.3-.4 5-.4h62.2c10.4 0 17.5-5 20.5-15.1 3.5-12 6.7-24.2 10-36.3 3.4-12.4 6.7-24.9 10.1-37.3 1.1-4 2-8 1.3-12.2-1-6.1-4-11-8.9-14.7-.6-.6-1.6-.5-2.3-1.1h.1c-1.7-1.2-3.7-.8-5.6-1.3-3-.4-6.1-.2-9.1-.2H468.4c-2.1 0-4.2.2-6.2-.5-1.8-1.4-2.1-3.4-2.7-5.3 1.7-.9 3.3-.5 4.8-.5h142.6c3.3 0 6.7-.2 10 .9 10.6 3.3 17.6 13 18.4 25.4.4 6-1.4 11.7-3 17.3-5.9 21.9-11.9 43.8-17.9 65.7-2.3 8.3-6.4 15.2-14.7 18.9-3.2 1.4-6.6 2.2-10.2 2.3-15.6.7-31.2.6-46.9.6h-15.9c-1.3 2-.1 4-1.3 5.5-.7.9-1.7.7-2.6.7H414.2c-.6 0-1.3-.1-1.9-.2-1.4-1.7-1.1-3.9-1.4-5.9-.1-.5-.3-1-.7-1.4-1.7-1.4-3.6-1-5.5-1-10.3-.1-20.7-.2-31 0-9.2.3-18.4-1-27.6-1.1-8.5-.1-15.7-7.2-15.5-14.2.4-.6.8-.7 1.4-.4l-.1-.1c.6.7.5 1.6 1 2.3.1.2.2.4.1.6.2.3.4.6.6 1 1.4 1.4 2.7 2.8 4.1 4.2.4.1.6.3.8.6h.1c.7.3 1 .6 1.5.8z" fill="#ff9d27"></path><path d="M331.3 141.2c.9 7.2 7.7 13.1 14.8 13.6 20.2 1.2 40.3.8 60.5.9 2.2 0 4.5-.3 5.9 2-2.5 1.9-5.3.3-7.9.3-18.8.2-37.5.1-56.3.1-1.7 0-3.5.4-5.2-.4l-.3.1-.3-.2c-.3-.3-.6-.4-.9-.1-.8.1-1.6-.1-2.1-.8-.2-.4-.4-.4-.8-.2-5.3-1.8-8.4-6-11.4-10.3-.4-.1-.5-.4-.5-.6 0-.3.1-.4.2-.4-2.9-6.9-4.5-14.1-6.5-21.3-4.9-17.7-9.6-35.4-14.4-53.2-.3-1.1-.7-2.1-1.1-3.1-.6-.6-1.2-1.2-1.5-2-.4-1.4-.9-2.8-.3-4.3-.2-5.9-.3-11.7 2-17.4 3.4-8.5 13.4-15.8 22.6-15.7 28.1.3 56.1.1 84.2.1 1.2 0 2.6-.5 3.5.9.6 1.9 0 3.4-1.1 4.6-1.8 1.3-3.6 1-5.3 1-20.8 0-41.7.1-62.5 0-5.9 0-11.7-.9-17.6 0-12.4 1.8-18.7 8.6-19.5 21.1-.1 1.4-.1 2.9.1 4.3 7.2 26.7 14.3 53.4 21.8 80 .3.1.1.6-.1 1z" fill="#ff9d27"></path><path d="M431.7 70.6c-1.3-.5-2.8-.4-4.6-1.7-1.7-1.8-3.6-4.2-4.8-7.2-1.3-4.6-3.9-8.5-5.6-12.9-3.2-8.4 1.7-14.9 4.6-21.8.5-1.3 2-1.4 3.3-.9 1.5.2 2.2 2.1 3.9 1.9.1-10.8 7.8-13.9 16-9.7 2 3 4.7 5.7 3.1 9.8.9-2.5.9-2.5 0-4.6-.7-1.6-1.8-3-2-4.8.2-1.9.2-3.9 2.4-4.8 5.6 6.8 9.2 14.7 11.7 23.1.9 3.2.7 6.2-.2 9.4-2.3 7.7-6.2 14.6-10.6 21.2-1.4 2.1-3.5 2.5-5.7 3.1-3.8 1.8-7.6 1.7-11.5-.1z" fill="#26272b"></path><path d="M74.3 59.5c.3.7.6 1.5 1.5 1.6h2.4c53.4 0 106.9 0 160.3-.1 2.2 2.4 1 4-1.3 5.4-5.3.3-10.5.1-15.8.1H67.9c-1.7 0-3.5.3-5.2-.3-2.2-1.5-1.7-3.4-.7-5.7 3.9-1.6 8.1-1.2 12.3-1z" fill="#1986f3"></path><path d="M431.7 70.6c3.9 0 7.7 0 11.6-.1-1.3 1.5-.9 3.3-.9 5 0 14.7 0 29.3-.1 44 0 4.4-.8 8.5-5.1 11.5-3.6-2.3-4.4-6-4.4-9.7-.1-8.1.1-16.3-.1-24.4-.1-6 .7-12.1-.8-18-.8-2.7.7-5.5-.2-8.3z" fill="#bcbfc2"></path><path d="M238.4 65.5c.1-1.5.6-3 .2-4.5v-8.5h19.3c.8 0 1.4.6 1.6 1.5-.1.3-.3.5-.4.8-.6.7-1.4 1.1-2.3 1.3-4.2.7-8.6-.4-12.4.7-2.1 1.7-1.8 3.7-1.8 5.5v62.6c0 1.8-.1 3.5 1 5.1.4 1.1 1.4 2.1.1 3.2-1.1.7-2.3 1.2-3.8-.2-.1-20.8 0-41.9-.1-64-.1 1.9 0 2.9 0 3.9v56.8c0 1.2.3 2.6-.4 3.7-1.5-1.3-.7-3-.8-4.5-.1-18.6 0-37.3 0-55.9 0-1.7.3-3.5-.6-5.7H88.7c-1.4 0-2.8-.2-4.3-.2 1.3-2.2 3.4-1.1 5.1-1.1 47.9-.1 95.9-.1 143.8-.1 1.7.2 3.5.8 5.1-.4z" fill="#2b313d"></path><path d="M327.2 145.1c.1.4.2.7.3 1.1H45.8c-3.2 0-6.4-.3-9.6-.4 3.3-.9 6.6-.6 10-.6h275.7c1.8-.1 3.5-.1 5.3-.1z" fill="#0d2038"></path><path d="M41 65.6c0-1.5 0-2.9.1-4.4v-7.7c1.3-1.5 2.7-1.1 3.9-1 6.1.3 12.3-.8 18.4.7.1 2.3-.6 4-3.1 4.6-4.2.3-8.6-.7-12.6.6-1.6 2.4-1.2 4.9-1.2 7.2v59.8c0 2.5.4 5.1-1.3 7.4-1.5.9-2.4.2-2.8-1.3-.3-1.1-.2-2.2-.2-3.3V69.3c0-2 .6-3.9.5-5.9-.5.6.6 2.6-1.7 2.2z" fill="#293a53"></path><path d="M448.1 13.8c-1.4 1.3-.3 3.6-1.8 4.9-1.3-.4-1.8-1.4-2.1-2.6-.3-2.7-2.1-3.8-4.6-3.8-2.6 0-5.4-.6-8.2.9-.9 5-3.6 9.4-6 14-.7-.2-1.5-.5-2.3-.7-1.5 1.1-2.1 2.8-2.6 4.3-.9 3-1.8 5.9-3.2 8.7-2.4 4.9.4 9.1 2 13.5.9 2.3 2.2 4.5 3.3 6.8.4.8.6 1.4-.4 1.9-2.9-4-4.7-8.6-6.5-13.1-1.6-3.9-1.8-8-.9-12.1.1-2.6-.3-5.4 2.4-7.2 2.3-4.9 5.2-9.5 7.8-14.2 3.4-6.2 8.4-7.5 14.8-6.9 3.9.6 6.9 1.9 8.3 5.6z" fill="#06080d"></path><path d="M303.4 61.1c.9 1.3 1.1 2.8 1.1 4.3-.9 1.2-2.2 1.1-3.4 1.1h-39.4c-1 0-1.9-.2-2.7-.7-1-.8-1.4-1.8-1.3-3 .1-.5.3-1.1.6-1.5.3-.4.7-.8 1.2-1 1.1-.3 2-.3 2.8.6 13.7.1 27.4.2 41.1.2z" fill="#1b83ec"></path><path d="M417.3 29.5c-1.3 2.2-1.5 4.8-2.4 7.2-.5-2.1-2.2-1.4-3.5-1.4h-23.9c-18 0-36 .3-54-.1-14.6-.4-23.3 10-23.1 23.3v1.4c.3.9-.1 1.2-.9 1.1-.8-4.8-1-9.6.9-14.1 3.2-7.6 8.7-12.3 17.3-12.9 6.1-.4 12.1-.1 18.1-.1 21.7.1 43.3.1 65 .1.8 0 1.6-.1 2.2-.1 1.7-1.2 1.7-3.2 2.6-4.7.6-.1 1.2.1 1.7.3z" fill="#043ea1"></path><path d="M462.3 34c2-.1 4.1-.2 6.1-.2h137.7c2.9 0 5.7-.2 8.6.5 0 1.7-1 1.3-2 .9h-146c-1.6 0-3.3.4-4.4-1.2z" fill="#00379f"></path><path d="M309.5 60.8c.3-.4.6-.7.9-1.1 5.7 20.8 11.4 41.5 17 62.3 1.7 6.4 4 12.7 4.9 19.3-.3 0-.6-.1-.9-.1-7.6-26.7-15-53.5-21.9-80.4z" fill="#48618f"></path><path d="M61.1 57.2c1.2-1.1.5-3.3 2.2-4.2 3 1.2 6.1 2.5 9.1 3.6 1.4.5 2 1.4 1.8 2.8-.6 1.3-1.6 1.7-3 1.6-2.8-.1-5.7 0-8.3 0-1.1 1.7-.6 3.1-.4 4.5-.5.4-1.1.3-1.6-.1-1.4-2.7-1.5-5.5.2-8.2z" fill="#060606"></path><path d="M343.3 157.6h69.3v1c-1.2 1-2.5.9-3.7 0-19.7 0-39.4 0-59.1-.1-2.3 0-4.6.7-6.5-.9z" fill="#b87820"></path><path d="M408.8 158.6h3.7v6.6c-1.1.3-2.1.6-3.2-.2-.7-2 0-4.3-.5-6.4z" fill="#283b25"></path><path d="M262.3 61c-.9 0-1.8 0-2.7.1-1.8-1.6-1.6-3.5-.7-5.4.2-.2.4-.4.5-.6.3.1.5.1.8.2 1.7 1.5 2.4 3.4 2.1 5.7z" fill="#09153a"></path><path d="M420.1 159.6c-.4-.1-.9-.1-1.5-.2-.6-1.9-.4-3.8-.2-5.7 2.5 1.4 1.6 3.8 1.7 5.9z" fill="#2c5aa9"></path><path d="M612.6 35.2c.7-.3 1.6-.1 2-.9 1.6 0 3 .2 3.9 1.8-2.1 0-4-.1-5.9-.9z" fill="#4e6286"></path><path d="M618.4 36c1-.2 1.7.3 2.3 1.1-.9-.1-1.9 0-2.3-1.1z" fill="#4e6286"></path><path d="M333.2 143.5c-.7-.6-1.2-1.3-1-2.3 1.1.5.9 1.5 1 2.3z" fill="#48618f"></path><path d="M260.3 55.2h-.8c-.3-.1-.4-.3-.3-.5 0-.2.1-.3.2-.3l.2-.2c.3.1.7.4.7 1z" fill="#2b313d"></path><path d="M333.9 145.1c-.5-.2-.7-.4-.6-1 .5.2.7.5.6 1z" fill="#fd9411"></path><path d="M338.8 149.9c-.3-.2-.5-.4-.8-.6.5-.1.7.2.8.6z" fill="#fd9411"></path><path d="M340.1 150.8c-.6 0-1-.2-1.2-.8.6 0 1 .2 1.2.8z" fill="#fd9411"></path><path d="M338.9 156.5c.2-.2.3-.4.5-.5.1.2.2.5.2.7h-.4l-.3-.2z" fill="#fd8e08"></path><path d="M341.8 157.4c.2-.2.3-.4.5-.6.1.2.3.4.4.7-.3 0-.6 0-.9-.1z" fill="#fd8e08"></path><path d="M544.8 94.6c4.6-4.9 8.2-10.5 12.4-15.6 1.2-1.5 2.3-3.1 4.4-4.4H583c.4 0 .7.5 1.1.8-1.7 5.1-5.9 8.4-9 12.5-2.7 3.5-5.6 6.8-8.5 10.2-1.2 1.4-1.9 2.9-1.6 4.7 6.3 9.4 12.5 18.8 18.8 28.2l1.5 2.4c-.1.7-.5.8-1.1.5h-21.9c-5.5-7-9.4-14.7-14.5-21.5-3.6.3-4.1 2.9-4.2 5.8-.1 5 .3 10.1-.4 15.5-6.7 1.4-13.3.8-19.8.4-1.7-.7-1.6-2.2-1.6-3.6V55.1c0-.8 0-1.6 1.2-2.9h18.3c1 0 1.2.9 1.5 1.6 1.1 1.9.9 4 .9 6.1v33.4c0 .3.1.7.2 1 .3.3.6.4.9.3z" fill="#f9f8f7"></path><path d="M355 134.3c-2.2-.9-1.6-2.8-1.6-4.5V57.2c0-1.4-.3-2.9.3-4.2 1.1-1 2.4-.6 3.6-.6 10.5 0 21-.1 31.5 0 6.4.1 12.6 1.3 18.3 4.6 4 2.3 6.9 5.6 8.9 9.6 2 2.4 2.1 5.4 2.7 8.3 1.9 16.9-9.7 29.2-24.4 31.3-5.8.8-11.7-.1-17.8 1.3-.9 8.8.4 17.7-.8 26.9-7.2.3-13.9.4-20.7-.1z" fill="#f7f5f3"></path><path d="M480.6 113.1c1.1 3 3.7 4.4 6.5 5 6.5 1.3 12.9 1 18.3-3.8 1.4-1.3 2.9-2.5 5-2.5 1.2 0 1.8.5 2 1.5 1.7 5.3.4 10.7.9 16.2-9.3 6.4-19.5 5.3-29.6 4.8-4.4-1-8.7-2-12.6-4.5l.1.1c-.4-.3-.7-.7-1.1-.9-14.1-10.5-17.7-29.7-8.3-44 4.5-6.8 11.1-10.4 18.7-12.2 9.7-2.3 19.3-1.5 28.5 2.4 1.5.6 3.1 1 3.4 2.9 1.5 5.1.8 10.2.5 14.9-1.7 1.7-3 1.2-4.4.8-1.1-.7-2.2-1.4-3.4-2.1-2.4-1-4.5-2.5-7-3.2-13.1-2.6-21.5 5.7-19 18.9.3 1.8.8 3.7 1.5 5.7z" fill="#faf9f9"></path><path d="M355 134.3c6.6-.7 13.3.3 20.1-.5v-27.9c3.8 0 7.4-.1 11 0 3.7.1 7.3-.4 10.9-1.3 10.9-2.8 22.4-12.4 21.1-30-.1-.9-.7-2.1 1-2.1.4 3.6.9 7.2.5 10.9-1 11.2-10.6 21.6-23.4 23.7-6.1 1-12.4.5-19.1.9v27.9h-20.5c-.9-.2-1.3-.8-1.6-1.6z" fill="#0f1107"></path><path d="M482.7 133.4c10 1.4 19.8.8 29.6-4.3v-15.8c1.3.6 1.8 1.6 1.8 3v14.8c-10.9 5.5-22 5.9-33.5 3.3 0-1.7 1.2-1.1 2.1-1z" fill="#18160b"></path><path d="M523.5 134.3c6.3-.2 12.6-.3 19.1-.5 0-5 .2-9.8-.1-14.5-.2-3.6.7-6.5 3.6-8.7 1.3.1 1.4 1.1 1.7 2-.9 1.1-1.9 2.1-3.2 3.6v19.4c-4.2.2-8.1.4-12 .5-2.2 0-4.4-.2-6.6-.2-1.1-.1-2.1-.3-2.5-1.6z" fill="#201c12"></path><path d="M565.1 102.9c-.6-.8-1.4-1.4-1.5-2.8 6.7-8 13.6-16.4 20.5-24.7.7.4 1.1 1.1 1.5 2.2-5.5 6.6-11 13.3-16.6 20-1.5 1.6-2.8 3.4-3.9 5.3z" fill="#101206"></path><path d="M480.6 113.1c-4.2-6.9-3.8-13.9 0-20.6 3-5.4 8.4-6.3 14.1-5.7 1.4.1 2.7.7 4.1 1.1 0 .8-.2 1.3-1.1.9-1.1 0-2.2-.1-3.3-.1-8.5 0-13.8 5-14.6 13.6-.3 3.7.8 7.2.8 10.8z" fill="#17170f"></path><path d="M544.8 94.6c-.2.4-.3.7-.5 1.1l-.1.1c-.3.3-.7.6-1.3 1.1V54c2.3 1.1 1.7 3.2 1.7 5v29.9c0 1.9.1 3.8.2 5.7z" fill="#020201"></path><path d="M508.4 93.6c1.1 0 2.2.3 3.9-.5V77.9c1.1.5 1.8 1.3 1.8 2.5V95c-2.6 1.1-4.4.7-5.7-1.4z" fill="#1d1c0d"></path><path d="M585.4 133.5c.4.5.8.9 1.2 1.5-3.4 1.1-17.9 1.2-22.4-.2 3.2-.7 6.5-.4 9.7-.5 3.5-.1 6.9.3 10.4-.2.3-.2.7-.4 1.1-.6z" fill="#020100"></path><path d="M482.7 133.4c-.7.4-1.6.2-2.1 1-3.5-.9-7.2-1.6-9.6-4.7 3.9 1.2 7.8 2.5 11.7 3.7z" fill="#664930"></path><path d="M419.2 72.4c-1 .4-.7 1.4-1 2.1-.7-2.7-1.4-5.3-2.1-8 2.3 1.3 2.6 3.6 3.1 5.9z" fill="#58432c"></path><path d="M497.7 88.8c.4-.3.7-.6 1.1-.9 2.5.5 4.5 1.7 6.2 3.6-2.6-.3-4.9-1.7-7.3-2.7z" fill="#663d1d"></path><path d="M469.9 128.9c.5.1 1 .3 1.1.9-.5 0-.8-.4-1.1-.9z" fill="#664930"></path><path d="M239.3 133.6V68.2h.9v64.9c1.8.4 2.9-.6 4.1-.7 3.3-2.3 7.3 0 11.1-2 1.5-3.9.5-8.4.7-12.8.2-4.9 2.1-8.5 6.6-10.4 2.7.3 3.6 2.2 4.8 3.9 3.4 4.8 6.4 9.9 9.5 14.9 2.5 4 5.6 5.9 10.3 5.4 2.6-.3 5.4.3 8.4-.5-1.1-3.3-3.4-5.6-5-8.3-3.8-6.4-8.9-12.1-11.9-19 0-.5 0-1 .3-1.4 1.1-1 1.7-.1 2.3.7 7.2 10.6 14.4 21.3 22 32.4h-22.9c-6.4-6.2-10-15.2-15.9-22.6-1.4.7-2.2 2-3.6 3.5v19.5h-18.9c-1.2 0-2.2-.8-2.8-2.1z" fill="#10142a"></path><path d="M161.6 83.8c.2.1.3.3.3.6.1.6.4 1 .9 1.3.3.3.5.7.7 1 .2.2.3.4.3.7.1.5.5.9.8 1.3.2.2.3.4.2.6.4 1.2.9 2.5-.6 3.4-2.1-.3-2.8-2-3.5-3.5-5.3-11.4-15.4-13.6-26.3-13.3-5.8.2-11.8 1.5-16.7 5-11.3 8.1-14.9 27.6-7.4 39.3 2.6 4 6.1 6.8 10.5 8.6 1.6.7 3.9.8 4 3.4-1.2 1.7-2.7 1.1-4.2.5-.5-.6-1.4-.4-2-1-12-6.6-16.9-17-16.6-30.3.2-8.8 2.8-16.5 9.4-22.6 4.3-3.9 9.4-6.1 14.9-6.9 12.3-1.8 23.8-.4 33 9.2.2.2.3.5.5.8.3.3.6.6.9 1 .4.3.7.6.9.9z" fill="#292322"></path><path d="M224.7 93.5c-.3 0-.5-.1-.7-.3-.4-.2-.7-.4-.9-.8-.4-.3-.7-.6-1.1-.8h.1c-.4-.7-1.4-.5-1.9-1.1-.8-1.5-4.5-.9-2.8-4.1 3-.6 4.7 2.5 7.6 2.9 1-3.3.8-6.5-.1-10.3-10.4-3.7-21-4.3-31.3.3-15.1 6.6-20.6 28.1-11 41.6 2 2.8 4.7 4.7 7.7 6.2 1.6.8 3.8 1 4.3 3.3-.7 1.3-1.7 1.9-3.2 1.1-.5-.7-1.4-.5-2-1-.4-.7-1.4-.5-1.8-1.1-.4-.3-.7-.6-1.1-.8-.3-.5-.7-.8-1.3-.9-9.6-7-12.3-16.9-11.8-28.1.1-2.2.6-4.4 1.2-6.6 3.5-12 12.4-18.1 24.4-20.5 9-1.9 17.7-.8 26.2 2.7 1.5.6 3 1.1 3.9 2.6.6 5.1 0 10.3.4 15-1.9 1.9-3.4 1.3-4.8.7z" fill="#292322"></path><path d="M61.3 65.7c.4 0 .8-.1 1.2-.1h175.9c-1 2-2.8 1-4.3 1-8.6.1-17.2 0-25.8 0H89.4c-1.7 0-3.5-.7-5 .6H64.2v49.1c-.7 1.2-1.3 2.5-3.1 2.1-.4-.4-.7-.9-.9-1.5-1-10.7-.3-21.3-.5-32-.1-4.5-.1-8.9 0-13.4.1-2-.1-4.2 1.6-5.8z" fill="#050b33"></path><path d="M120.6 132.7c1.3-.3 3.1.7 3.9-1.1 1.9-1.5 3.9-.6 6-.5 10.3.7 19.7-1.4 26.8-9.6 6-7 6.5-15.3 5.9-23.9-.1-1.7-.9-3.5.4-5 1.6-.6.8-2.1 1.1-3.2 6.4 12.1 4.3 30.5-5.7 39.1-4 3.4-8.4 5.9-13.5 6.6-8.4 1.1-16.9 1.8-24.9-2.4z" fill="#08133d"></path><path d="M41 65.6c1-.2 1.1-1 1.1-1.8.1-1.7-.3-3.5.5-5.5.8 2 .5 3.7.5 5.4 0 21.7 0 43.4.1 65.1 0 1.5-1.2 3.8 1.8 4 .3-.1.6-.1.8-.2 16-.7 32 .3 47.6-.5 1.6-4.2.5-7.6 1.2-10.9.3-1.4 1-2.6 2-3.7 1.4.5 1.9 1.6 1.9 3v15.3c-1.5 1.1-2.6.7-3.7.7H47c-1.9 0-3.9.4-5-1.9-.9-1.7-.4-3.4-.4-5.1V72.8c0-1.7.5-3.5-.5-5.1-.3-.3-.5-.6-.5-1 .1-.4.2-.7.5-1l-.1-.1z" fill="#0d1a40"></path><path d="M217.3 86.9c-.1 2.1 2.7 1.8 2.9 3.7-3.5-.9-6.9-2.1-10.7-1.9-6.3.4-10.8 3.9-12.3 10-1.7 6.5-1.6 12.9 3 18.4.3.5.3 1-.1 1.5-2.6.9-3.8-1-5-2.7-5.1-6.9-4.8-20 .6-26.6 5-6.3 16.6-7.6 21.6-2.4z" fill="#0a153a"></path><path d="M258.6 64.4c1 1.4 2.5 1.1 3.9 1.1 14 0 28-.1 42-.1.6.5.8 1.2.7 2h-44v24.2c0 1-.4 2.3 1.1 2.8.1 2.2-1.1 3.1-3.1 3.1-1.8-.9-1.9-2.5-1.9-4.1-.1-8.4-.1-16.8 0-25.2-.1-1.4 0-2.8 1.3-3.8z" fill="#09153a"></path><path d="M258.6 64.4v32.7c2.2-.3 2.9-1.4 3.7-2.6 4.9-6.4 9.8-12.9 14.7-19.3h22.7c1.3 2.1-.4 3.3-1.5 4.5-6.5 7.2-12.6 14.7-18.6 22.4v1c-3.9-1.6-2.6-3.9-.8-6.1 5.1-6 10-12.2 15-18.3.2-1.7-1.1-1.3-1.9-1.3-4 0-8-.2-12.4.2-6.1 6.3-11.1 13.9-16.9 20.9-1.3 1.6-2.3 4-5.1 3.6-.4-.4-.7-.8-.9-1.4-.9-14.7-.8-29.4-.1-44.1.2-.6.5-1.1.9-1.6.6-.3 1.3-.5 1.9-.8.1.3.1.5.2.8 0 2 .1 3.9.1 5.9l-.1-.1c-.5.2-.9.6-1 1.2.1.9.1 1.6.1 2.4z" fill="#2d231d"></path><path d="M191.4 131.8c1.2.1 2.1-.7 3.1-1.1 3-1.7 5.8-.1 8.7.2 7.9.8 15.4-.1 22.3-4.4 1.5-1.7.9-3.9 1-5.8.2-2.6.1-5.3 2.3-7.3 1.6.9 1.9 2.4 1.9 4-.1 4.3 0 8.6 0 12.4-.5 1.4-1.2 2.1-2.1 2.4-12 4.8-24 5.1-36.1.5-.5-.2-.8-.6-1.1-.9z" fill="#09133a"></path><path d="M279.6 102c-.4-1.8.6-2.9 1.7-4.2 5.9-6.8 11.2-14.1 17.6-20.5.6-.6.8-1.4.8-2.2 1.3.1 1.7 1.2 2.7 2.1-6.9 8.8-14.4 16.9-20.9 25.8-.6-.3-1.3-.6-1.9-1z" fill="#061440"></path><path d="M41.2 66.6v1c-1.7 0-3.5-.3-5.7.4v72.6c-1.2.7-1.7.6-1.9-.2.9-1.7.5-3.4.5-5.2V72.1c0-1.7-.3-3.5.4-5.5 2.1-.7 4.3-.7 6.7 0z" fill="#293a53"></path><path d="M41.2 66.6c-2 .2-4.1-.3-6.2.4-1 1.6-.5 3.4-.5 5.1 0 21.2 0 42.3-.1 63.5 0 1.6.9 3.5-.9 4.8 0-20.2-.1-40.3-.1-60.5v-14c2.7-.6 5.3-.2 7.7-.3 0 .3.1.6.1 1z" fill="#000025"></path><path d="M228.9 113.3c-1 4-1.2 8-1 12.1 0 .9.1 1.9-1 2.4-2.3-3.1-1.1-6.7-1.3-10.1-.1-.4 0-.9-.7-1.5-6.4 4.6-13.6 7.2-21.8 5-1.5-.3-2.9-.8-3.1-2.6.1-.5.1-1.1.2-1.6 9.1 4.1 17.2 2 24.2-4.5 1.7-.2 3.3-.8 4.5.8z" fill="#2e2725"></path><path d="M41.1 67.6c1.8 1.1 1 2.9 1 4.3.1 20.9 0 41.8 0 62.7-1.7-1.4-.8-3.3-.9-4.9 0-20.7 0-41.4-.1-62.1z" fill="#293a53"></path><path d="M224.7 93.5c1.2-.3 2.5.2 3.7-.5-.3-5.1-1.5-10.3.7-15.2 1.2.7 1.7 1.7 1.7 3.1v14c-2.8 1.2-4.6.6-6.1-1.4z" fill="#0a153a"></path><path d="M96.7 117.4c-.1 1 .4 2.2-.9 2.9-.3.1-.5.2-.8.3-.6-.1-1.1-.2-1.6-.5-8.3-1-16.6-.2-25-.4-2.1-.1-4.5.5-6.2-1.4-.1-1.4.8-1.9 2-1.9h-.1c.3.5.6.8 1.2.9 10.5-.2 20.9-.6 31.4.1z" fill="#36251d"></path><path d="M220.2 90.6c.8 0 1.7 0 1.9 1.1-.9-.1-1.5-.4-1.9-1.1z" fill="#0a153a"></path><path d="M189.5 130.8c.8-.1 1.7-.1 2 1-.9 0-1.6-.2-2-1z" fill="#09133a"></path><path d="M187.7 129.7c.8 0 1.6.1 1.8 1.1-.8 0-1.4-.3-1.8-1.1z" fill="#09133a"></path><path d="M118.7 131.7c.8 0 1.7-.1 2 1-.9 0-1.6-.2-2-1z" fill="#08133d"></path><path d="M160.8 82.9c-.5-.1-.8-.5-.9-1 .5.2.8.5.9 1z" fill="#08133d"></path><path d="M222 91.6c.6 0 .9.3 1.1.8-.5-.1-.9-.3-1.1-.8z" fill="#0a153a"></path><path d="M223.1 92.4c.3.3.6.5.9.8-.5 0-.7-.3-.9-.8z" fill="#0a153a"></path><path d="M185.4 128c.7 0 1.1.2 1.3.9-.7 0-1-.4-1.3-.9z" fill="#09133a"></path><path d="M186.6 128.9c.6 0 .9.3 1.1.8-.5-.1-.9-.3-1.1-.8z" fill="#09133a"></path><path d="M163.5 86.7c-.5-.2-.7-.5-.7-1 .4.2.8.5.7 1z" fill="#08133d"></path><path d="M162.8 85.7c-.7-.2-.9-.6-.9-1.3.3.5.6.9.9 1.3z" fill="#08133d"></path><path d="M161.6 83.8c-.3-.3-.5-.6-.8-.9.4.2.7.5.8.9z" fill="#08133d"></path><path d="M164.6 88.7c-.6-.2-.8-.7-.8-1.3.5.3.7.7.8 1.3z" fill="#08133d"></path><path d="M65.4 117.2c-.7.1-1.1-.2-1.2-.9l1.2.9z" fill="#050b33"></path><path d="M435.7 45.4c-3.1-1.7-6.2-3.3-6-7.7.2-3.5 2.4-6.5 5.7-7.4 3.2-.9 6.3.4 8.3 3.3.5.8.9 1.6 1.4 2.4 2.2 3.3.2 5.7-1.9 7.8s-4.5 3.8-7.5 1.6z" fill="#fc9211"></path><path d="M425.4 27.3c-1-2.3.8-3.9 1.6-5.7.8-1.7 1.8-3.3 2.7-4.8.3-1.1-1.1-1.7-.6-2.8 1.2-2.2 2.9-3.2 5.4-3.1 2.2.1 4.4-.1 6.6.1 3.1.3 4.2 1.8 3.8 4.8-.3 1-1 1.5-2.1 1.3-3.1-.8-6.2-.2-9.3-.3-3 2.3-4.3 5.5-5.4 8.2-.5 2.1 1.2 2.9 1.5 4.2v1.6c-1.9-.6-2.7-2.5-4.2-3.5z" fill="#f7f7f7"></path><path d="M441.3 63c-3.3-.2-6.7.3-10.1-.5-3.4-3.3-4.6-7.7-6.4-11.8 2-3.8 2-3.8 5.7-5.9-.8 2.3-3.3 2.9-3.9 5.7.6 3.5 2.6 7.2 5.1 10.7 3.5.7 6.9.5 10.6.2 2.7-3.3 4.3-7.2 5.6-11.1-.9-1.8-1.9-3.2-3.6-3.9-1.1-1-.8-1.6.6-1.8l4.2 3.6c.2 1.5-.1 2.8 0 4 0 6-3.2 10.4-7.8 10.8z" fill="#dbdcdd"></path><path d="M429.7 29.3c-1.3-.7-2.1-1.8-3.1-3 .9-4 3-7.2 5.6-10.3 3.7.2 7.5-.9 11.1.8.6.5 1.5.9.8 2-3.1-1-6.4-1.3-9.8-.9-3.1 1.7-3.5 5.3-5.7 8.5-.6.9 3 1.4 1.1 2.9z" fill="#0d0f12"></path><path d="M441.3 63c2.1-.2 3.3-1.4 4.2-3.3 1.2-2.5 2.5-5 3.7-7.5 1.1-.3.4-1.8 1.7-2.4.5 6.1-2.8 10.4-5.9 14.7h-12.3c3.1-1.7 6.2.5 8.6-1.5z" fill="#05070a"></path><path d="M445 44.7c-1.1.3-.8 1.1-.6 1.8-1.3.1-2.4.3-3.7.7-2 .7-4 .4-5.6-1.1 0 0 0-.3.1-.4.1-.1.3-.2.4-.3 6.8-.3 9-2.5 9.4-9.3.2-.4.7-.8 1-.3 1.8 3.2 1.2 6.1-1 8.9z" fill="#0a090f"></path><path d="M444.2 18.8c-.3-.7-.5-1.3-.8-2 .5-.3 1.1-.6 1.6-.9.1 1.1.6 2.1 1.3 2.8.8 2.7 3.2 4.8 2.9 8-1 1.9-2.3 3.4-5.3 4.7 1.3-2.6 3.4-3.3 4-5.5-.6-2.4-1.9-4.9-3.7-7.1z" fill="#d6d7d7"></path><path d="M257.2 56.4c0 13.5.1 27 .1 40.5 0 1.7.1 3.5.2 5.2.3.3.7.5 1.1.7 4.3-2.7 6.2-7.4 9.5-11 2.3-2.6 4.3-5.5 6.4-8.2 4.7-5.9 12.5-8.4 19.6-6 .7.2 1 .8 1 1.4-5.8 7-11.5 14-17.3 21-.1 1.4.8 2.3 1.8 3.1 5.9 8.9 11.7 17.8 17.6 26.6.4.6.9 1.3 1.5 2.3h-18.9c-5.3-8.1-10.7-16.5-16.5-25.2-2.3 2.8-4.1 4.9-5.9 7.2v17.8c-4.4 1.1-8.7.1-12.9.7-.7-.2-1.5-.5-2.2-.7-.6-.9-.4-1.8-.4-2.8V59.3c0-1.1-.3-2.2.9-3.6 4.4.3 9.4-1 14.4.7z" fill="#fefefe"></path><path d="M257.2 56.4h-15v75.4c-1.2-.5-1-1.5-1-2.4V56.8c0-.3.1-.6.4-1.5h15.9c-.2.2-.2.6-.3 1.1z" fill="#0655ad"></path><path d="M61.3 65.7c-.6 6.5-.2 13-.2 19.5-.1 9.5 0 19 0 28.5 0 1.6-.4 3.2.4 4.7 1.7 1.2 3.7.9 5.5.9h22.8c1.7 0 3.5-.3 5 1 1 4.1.3 8.2.4 12.1-.6.5-1 .8-1.5.8-15.8.1-31.5.1-47.3 0-.5 0-.9-.2-1.4-.4-.1-10.3-.2-20.7-.2-31V56.4c5.2-.7 10.1-.3 14.9-.2.5 0 1 .7 1.4 1.1 0 2.7-.3 5.6.2 8.4z" fill="#fefefe"></path><path d="M258.6 62.2c0-.7.2-1.1 1-1.2-.4.3-.7.8-1 1.2z" fill="#09153a"></path><path d="M540 103c.6 0 1.2-.1 1.7-.1 1.7.5 2.2-1 2.9-1.9 5.4-6.2 10.6-12.7 15.4-19.4 3-4.2 12.8-5 16.9-1.6-5.4 6.7-10.8 13.4-16.5 20.4 6.8 10.2 13.7 20.4 21.2 31.5-6.6.2-12.5.1-18.7.1-5.4-8.5-10.8-16.8-16.3-25.4-4.3 4.1-7.5 8.1-6.6 14.2.5 3.4.1 7 .1 10.9h-13.8c-1.3-1.7-.9-3.7-.9-5.5V62.1c0-2-.5-4.2 1.7-6.4 3.5-1 7.5-.7 11.3-.1 1.3 2 .8 3.8.8 5.5 0 12.4 0 24.9.1 37.3.2 1.5-.4 3.1.7 4.6z" fill="#252627"></path><path d="M540 103c-2-1-1-2.8-1-4.3-.1-12.4 0-24.8 0-37.2v-4.6c-3.9-1-7.2-1-12-.1-1 8.2-.3 16.5-.4 24.9-.1 8.3 0 16.5 0 24.8v25.3c-.6.1-1.2.2-1.9-.4V55h15.5c-.2 15.9-.2 31.9-.2 48z" fill="#030508"></path><path d="M577.1 80c-4.4-1.9-9-.5-13.7-.9-6.4 9.1-13 17.8-20.6 25.7-.2.2-.9 0-1.4-.1.2-.7.3-1.3.5-1.9 6.5-8.5 13-17.1 19.6-25.8h17.6c0 1.5-1.1 2.2-2 3z" fill="#0b0b0d"></path><path fill="#ff9d27" d="M544.2 95.7l-.1-.1h.2l-.1.1z"></path><path d="M371.4 131.7c-4.2.3-8.3.3-12.5 0-2.2-1.1-1.9-3.1-1.9-5 .1-6.7-.1-13.3-.1-20 0-16 .4-32.1-.4-48.1 0-.9-.1-1.9 1.2-3.4 15.3.6 31.4-2 47.1 3 6.2 2.8 9.5 7.7 10.6 14.3 2.6 15.9-6.9 28.7-23.1 30.8-6.2.8-12.4.3-18.4.5-1.4 1.1-1 2.4-1 3.7v21c0 1 .6 2.2-.6 3-1-8.6 0-17.3-.5-24.8-.5-1.7-1.3-.9-.7-1.2.2-.1.4-.1.4.2.6 8.7.8 17.3-.1 26z" fill="#27292c"></path><path d="M404.9 58.2c-.5.8-1.3.9-2.1.6-1.8-.6-3.6-1.6-5.4-1.7-3.2-.1-6.1-1.2-9.4-1.1-10.1.2-20.3.1-30.4.1-.3.8-.6 1.2-.5 1.6 1.4 13.2.8 26.4.8 39.6 0 5.3 1 10.8-.7 16.1 2 5.9-.6 12.3 1.8 18.2-.9.2-1.9.4-2.7-.1-.6-3.6-.7-70.2-.2-76.4.7-1 1.7-.7 2.6-.7 10.5 0 21.1 0 31.6.2 5.1 0 10 1 14.6 3.6z" fill="#0e0f10"></path><path d="M371.4 131.7v-27.1h.9v26.9c-.3 0-.6.1-.9.2z" fill="#05070a"></path><path d="M509.2 127.9c-2.7 2.2-6 2.8-9.2 3.3-9.6 1.5-19 1.3-27.8-3.5-3.6-2-7-4.4-8.8-8.4-.8-3.7-2.5-7-3.1-10.9-2.2-16 5-27.5 20.5-32.2 9.6-2.9 18.8-1.9 28.4 2.2-1 3.8 2.8 8.4-2.8 11.2-3.1-1.6-6-3.5-9.4-4.3-8.2-1.7-18.3.1-20.7 12.5-1.6 8.5-.5 16.1 7.3 21.4 6.4 4.2 13.1 3.2 19.9.9 1.5-.5 2.7-1.6 4.7-1.2 2.2 2.7.6 6 1 9z" fill="#262729"></path><path d="M506.4 89.5c.6-.5 1.1-1.1 1.8-1.7v-9.2c-8.7-3.4-17.5-4.3-26.6-1.4-3.1 1-6.3 1.7-9.2 3.6-6.3 4.2-9.6 10-11.2 17.3-1.5 6.7-.2 12.7 2.3 18.8.4.9 1.1 1.7-.3 2.3-.3-.3-.5-.6-.7-1-.3-.2-.4-.5-.3-.8-.3-.3-.5-.7-.7-1.1-3.7-8.2-3.7-16.7-.8-25.1 2.2-6.2 6.3-11 12.4-13.8 12.1-5.5 24.3-5.2 36.5.1v13.6c-1.5.9-2.1-.9-3.2-1.6z" fill="#0c0d10"></path><path d="M509.2 127.9c-.3 0-.6-.1-1.2-.2.2-2.7.8-5.4-.2-8.5-4.5 3.1-9.3 4.3-14.4 3.9-3.6-.3-7.1-1.1-10.3-2.8-.1 0-.2-.3-.1-.4.2-.2.4-.4.6-.7l.9.3 1.2.6c3 .1 5.9 1.2 9 .8 4.7-.6 8.9-2.2 12.5-5.3.7-.6 1.3-1.4 3.1-1.3-.8 4.5.6 9.1-1.1 13.6z" fill="#121316"></path><path d="M462.6 118.3c.5.1.7.5.7 1-.4-.2-.7-.5-.7-1z" fill="#262729"></path><path d="M485.6 120.1c-.5.1-.9-.1-1.2-.6.6-.1.9.2 1.2.6z" fill="#262729"></path><path d="M461.7 116.4c.5.2.8.5.7 1.1-.5-.3-.8-.6-.7-1.1z" fill="#262729"></path><path d="M163.6 92.5c1.1 6 1.7 11.9.3 17.9-2.7 11.8-10.5 19.3-22.3 21.3-5.7 1-11.4.5-17.1-.2-.7-.3-1.4-.7-2.2-.9-10.4-3.2-15.5-10.6-16.9-20.9-.7-5.4-.3-10.8 1.4-16 2.9-9.1 8.8-14.9 17.9-17.6 7.2-2.2 14.5-2.1 21.7-.3 7.6 1.8 13.1 6.3 16 13.7.3.9.8 2 1.2 3z" fill="#fcfcfd"></path><path d="M200 118.7c.6.8 1.4 1.4 2.4 1.6 7.4 2.5 14.4 1.6 20.9-2.9 1-.7 2.1-1.5 3.5-1 0 3.8 0 7.6.1 11.5-9.3 4.8-19.1 5.3-29.1 3.4l-3.3-.6c-1.1-.5-2.3-1.2-3.4-1.6-7.8-3.1-12.2-8.9-13.7-17.1-.9-4.7-1-9.5 0-14.3 2.3-10.8 8.7-17.8 19.3-20.9 10.2-3 20.1-2.4 30 1.6.5 4.6.3 9 0 13.8-3.8-1.1-5.9-4.6-9.5-5.3-2.5-1.5-5.4-1.9-8.2-2-7.8-.4-13.5 3.7-15.5 11.3-2 8.1-1.5 15.7 5.1 21.8.5.3 1 .5 1.4.7z" fill="#fafbfd"></path><path d="M94.8 120.3c-9.5 0-19 0-28.5-.1-1.8 0-3.9.6-4.9-1.8.3 0 .5-.1.8-.1h31.4c1.2.7 1.2 1.3 1.2 2z" fill="#013977"></path><path d="M45 132.7h49.5c.5-4.3.2-8.4.2-12.5h1v12.4c-1.1 1.2-2.1 1-3.1 1H48.3c-1.1 0-2.5.6-3.3-.9z" fill="#293a53"></path><path d="M295.1 78.9c-4.8-1.6-9.6-.3-14.9-.8-6.9 8.8-13.8 17.6-20.6 26.4-1-.2-1.6-.6-1.8-1.5.2-.4.4-.8.8-1.1 6.7-8.6 13-17.5 20.1-25.5h17.7c.3 1.6-.5 2.1-1.3 2.5z" fill="#064894"></path><path d="M258.5 102c0 .5-.3.9-.8 1.1-.1-.3-.2-.7-.2-1 .3-.1.6-.1 1-.1z" fill="#09153a"></path><path d="M226.8 116.4c-5.5 4.4-11.6 6.8-18.7 5.8-2-.3-4.1-.4-5.7-1.9 3.1-.5 6 1.2 9.3.5 5.1-1 9.6-2.8 13.2-6.6.3-.3.8-.6 1.5-.2.8.5.5 1.5.4 2.4z" fill="#0b4b95"></path><path d="M374.3 91.6c-.8-.3-1.3-.9-1.3-1.8V66.7c4.9 0 9.5-.4 14 .1 5.6.7 9.6 3.8 11.1 9.6 1.8 5.6-1.1 12.6-6.6 14.4-5.5 1.7-11.3 2.8-17.2.8z" fill="#f4f4f3"></path><path d="M374.3 91.6c4.1-.6 8.2-.1 12.3-.6 7.5-.9 11.5-6 11.4-13.1 0-.5.1-.9.1-1.4.1-.4.2-.9.4-1.3 2.4 6.4 1.1 11.9-3.8 15.7-3.1 2.4-6.9 1.7-10.3 2.6-2.2.6-4.7.1-7.1.1-1.4-.1-2.4-.7-3-2z" fill="#08090d"></path><path d="M137.8 84.9c5.1.8 7.5 4.7 9.2 8.8 2.6 6.4 2.5 13.1.8 19.7-1.2 4.7-3.9 8.3-9.3 9-6.4.8-11.2-1.6-14.7-6.8-.8-1.1-1.6-2.4-1.4-4 1.8-.6 2.7.7 3.8 1.7 2.4 3.7 5.6 5.5 10.1 4.5 4.8-1 6.9-4.5 7.5-8.8.9-6.7 1.9-13.6-3.3-19.4-1.1-1.5-3.1-2.4-2.7-4.7z" fill="#262428"></path><path d="M137.8 84.9c1 1.2 2 2.4 2.9 3.6-1.3 1.4-3 .6-4.5.7-5.2.3-8.2 2.6-9.3 7.8-.9 4-1.7 8-.7 12.2.4 1.5.5 3.1-.8 4.4-1-.7-2-1.3-3-2-1.9-5.9-1.6-11.9-.2-17.8 1.5-6.2 5.7-11.2 15.6-8.9z" fill="#09163f"></path><path d="M392.7 71.5c4 3.1 3.3 7.4 2.2 11.3-1.1 3.9-4.4 5.7-8.4 5.9-3.1.2-6.3 1.2-9.4.5-1.2-3.9-1.2-14.6 0-19.1 5.3-1.4 10.5-.7 15.6 1.4z" fill="#fd9011"></path><path d="M392.7 71.5c-5-.9-10.1-1.3-15.6-.8v18.5h-1.6V68.5c5.9.4 12-1.2 17.2 3z" fill="#1f1c0d"></path><path d="M125.5 113.6c-.2-4.7-1.1-9.2-.4-14.1 1-7.5 4.8-13.5 15.7-11.1 1.3.9 2.5 2 3 3.6 2.5 7.1 2.7 14.3-.1 21.4-1.7 4.1-5 5.9-9.4 6-4.4 0-7.3-1.7-8.8-5.8z" fill="#1384f7"></path></g></svg>