<svg preserveAspectRatio="xMidYMid meet" data-bbox="2.2 2.4 95.057 99.825" viewBox="0 0 101.6 106.5" xmlns="http://www.w3.org/2000/svg" data-type="ugc" role="img">
    <g>
        <path d="M34.857 76.325h-27v-42.1h5v37.1h22v-31.4h5v31.4h23.8v-31.4h5v31.4h23.6v-31.4h5v62.3h-5v-25.9h-23.5v25.8h-5v-25.8h-23.8v25.8h-5v-25.8z" fill="#ffffff" stroke="#ffffff" stroke-width="4" stroke-miterlimit="10"></path>
        <path d="M14.7 26.5l-5.3-9.4H7.1v9.4H2.2V2.4h9.1c1.6 0 3.3.3 4.8 1 1.2.6 2.3 1.5 3 2.7.7 1.1 1 2.4 1 3.8 0 1.5-.5 3.1-1.4 4.3-1 1.3-2.5 2.3-4.1 2.6l5.8 9.8-5.7-.1zm-7.6-13h4c1.1.1 2.1-.3 2.9-1 .7-.7 1-1.7 1-2.6.1-1-.3-1.9-1-2.6-.8-.7-1.9-1-2.9-.9h-4v7.1z" fill="#ffffff"></path>
    </g>
</svg>